<svg id="Layer_1" enable-background="new 0 0 512 512" height="512" viewBox="0 0 512 512" width="512" xmlns="http://www.w3.org/2000/svg"><g><path d="m288.133 497h-64.267c-8.284 0-15-6.716-15-15v-66.4c0-8.284 6.716-15 15-15h64.267c8.284 0 15 6.716 15 15v66.4c0 8.284-6.715 15-15 15z" fill="#ec8600"/><path d="m288.133 400.6h-32.135v96.4h32.135c8.284 0 15-6.716 15-15v-66.4c0-8.285-6.715-15-15-15z" fill="#ff4d05"/><path d="m368.467 512h-224.934c-8.284 0-15-6.716-15-15s6.716-15 15-15h224.934c8.284 0 15 6.716 15 15s-6.716 15-15 15z" fill="#ecbe00"/><path d="m368.467 482h-112.468v30h112.468c8.284 0 15-6.716 15-15s-6.716-15-15-15z" fill="#ec8600"/><path d="m304.2 415.6h-96.4c-70.285 0-127.466-57.181-127.466-127.466v-50.334c0-8.284 6.716-15 15-15h64.266c8.284 0 15 6.716 15 15s-6.716 15-15 15h-49.267v35.334c0 53.743 43.723 97.466 97.466 97.466h96.4c53.743 0 97.466-43.723 97.466-97.466v-35.334h-49.265c-8.284 0-15-6.716-15-15s6.716-15 15-15h64.267c8.284 0 15 6.716 15 15v50.334c0 70.285-57.182 127.466-127.467 127.466z" fill="#ecbe00"/><path d="m337.4 237.8c0 8.284 6.716 15 15 15h49.267v35.334c0 53.743-43.723 97.466-97.466 97.466h-48.201v30h48.2c70.285 0 127.466-57.181 127.466-127.466v-50.334c0-8.284-6.715-15-14.999-15h-64.269c-8.283 0-14.998 6.716-14.998 15z" fill="#ec8600"/><path d="m352.4 237.8h-192.8c-8.284 0-15-6.716-15-15v-159.6c0-34.849 28.351-63.2 63.2-63.2h96.4c34.849 0 63.2 28.352 63.2 63.2v159.6c0 8.284-6.716 15-15 15z" fill="#004c9c"/><path d="m304.2 0h-48.201v237.8h96.401c8.284 0 15-6.716 15-15v-159.6c0-34.848-28.351-63.2-63.2-63.2z" fill="#00366d"/><path d="m367.4 138.532h-54.267v-54.267h54.267v-21.065c0-3.034-.228-6.014-.643-8.935h-53.624v-53.622c-2.921-.415-5.9-.643-8.933-.643h-21.068v54.265h-54.267v-54.265h-21.065c-3.034 0-6.014.228-8.935.643v53.622h-53.622c-.415 2.921-.643 5.901-.643 8.935v21.065h54.265v54.267h-54.265v30h54.265v69.268h30v-69.268h54.267v69.268h30v-69.268h54.268zm-84.268 0h-54.267v-54.267h54.267z" fill="#00366d"/><path d="m283.132 237.8h30v-69.268h54.268v-30h-54.267v-54.267h54.267v-21.065c0-3.034-.228-6.014-.643-8.935h-53.624v-53.622c-2.921-.415-5.9-.643-8.933-.643h-21.068v54.265h-27.134v30h27.134v54.267h-27.134v30h27.134z" fill="#01223c"/><path d="m304.2 351.333h-96.4c-34.849 0-63.2-28.351-63.2-63.199v-65.334h222.8v65.334c0 34.848-28.351 63.199-63.2 63.199z" fill="#ffd845"/><path d="m367.4 288.134v-65.334h-111.401v128.533h48.201c34.849 0 63.2-28.351 63.2-63.199z" fill="#ecbe00"/></g></svg>